# xmcd CD database file
#
# Track frame offsets:
#	150
#	19279
#	36533
#	66012
#	79442
#	117697
#	149202
#
# Disc length: 2196 seconds
#
# Revision: 2
# Processed by: cddbd v1.5.2PL0 Copyright (c) Steve Scherf et al.
# Submitted via: CDex 1.51
#
DISCID=72089207
DTITLE=STEVIE RAY VAUGHAN - THE DOUBLE TROUBLE Feat BUDDY GUY - Live At The Pier 84, N.Y.C. May 23rd, 1983
DYEAR=1900
DGENRE=Blues Rock
TTITLE0=The Big Run
TTITLE1=Pride And Joy
TTITLE2=Voodoo Chile(Slight Return)
TTITLE3=Love Struck Baby
TTITLE4=Texas Flood
TTITLE5=Stormy Monday Blues
TTITLE6=Closing Time
EXTD=
EXTT0=
EXTT1=
EXTT2=
EXTT3=
EXTT4=
EXTT5=
EXTT6=
PLAYORDER=
